<svg width="156" height="75" viewBox="0 0 156 75" fill="none" xmlns="http://www.w3.org/2000/svg">
<path d="M80.0842 15.9024V8.73438C80.0842 5.56737 82.6516 3 85.8186 3H147.463C150.63 3 153.198 5.56737 153.198 8.73438V48.8751C153.198 52.0421 150.63 54.6094 147.463 54.6094H137.428L140.782 70.2603C141.075 71.6282 139.436 72.563 138.408 71.6141L123.092 57.4766H85.8186C82.6516 57.4766 80.0842 54.9093 80.0842 51.7422V48.8751" stroke="url(#paint0_linear)" stroke-width="4.30079"/>
<path d="M98.746 22.046C100.492 22.046 101.995 22.361 103.255 22.991C104.533 23.603 105.505 24.476 106.171 25.61C106.855 26.726 107.197 28.04 107.197 29.552C107.197 30.074 107.134 30.731 107.008 31.523C106.684 33.377 105.982 35.024 104.902 36.464C103.84 37.904 102.481 39.02 100.825 39.812C99.187 40.604 97.378 41 95.398 41H88.297L91.645 22.046H98.746ZM95.803 37.058C97.549 37.058 98.998 36.572 100.15 35.6C101.302 34.628 102.022 33.269 102.31 31.523C102.4 30.983 102.445 30.533 102.445 30.173C102.445 28.841 102.04 27.815 101.23 27.095C100.42 26.357 99.268 25.988 97.774 25.988H95.56L93.616 37.058H95.803ZM115.231 25.691L114.556 29.633H120.739L120.118 33.116H113.935L113.179 37.355H120.172L119.524 41H107.914L111.262 22.046H122.872L122.224 25.691H115.231ZM129.353 22.046L131.54 36.356L138.749 22.046H143.663L133.592 41H127.814L124.439 22.046H129.353Z" fill="url(#paint1_linear)"/>
<path d="M16.69 37.652H9.616L7.888 41H3.055L13.261 22.046H18.607L22.117 41H17.23L16.69 37.652ZM16.15 34.142L15.043 27.122L11.425 34.142H16.15ZM30.4682 41.216C29.2802 41.216 28.2092 41.027 27.2552 40.649C26.3192 40.271 25.5812 39.749 25.0412 39.083C24.5012 38.399 24.2312 37.616 24.2312 36.734C24.2312 36.608 24.2492 36.383 24.2852 36.059H28.7402C28.7042 36.617 28.8662 37.067 29.2262 37.409C29.6042 37.733 30.1352 37.895 30.8192 37.895C31.3952 37.895 31.8722 37.787 32.2502 37.571C32.6282 37.355 32.8172 37.049 32.8172 36.653C32.8172 36.275 32.6102 35.978 32.1962 35.762C31.8002 35.528 31.1342 35.249 30.1982 34.925C29.2262 34.601 28.4072 34.286 27.7412 33.98C27.0932 33.656 26.5352 33.197 26.0672 32.603C25.5992 32.009 25.3652 31.262 25.3652 30.362C25.3652 29.48 25.6262 28.688 26.1482 27.986C26.6702 27.266 27.3992 26.708 28.3352 26.312C29.2892 25.916 30.3872 25.718 31.6292 25.718C32.8712 25.718 33.9512 25.925 34.8692 26.339C35.7872 26.735 36.4982 27.293 37.0022 28.013C37.5062 28.733 37.7582 29.543 37.7582 30.443L37.7312 30.848H33.5462C33.5822 30.308 33.4202 29.876 33.0602 29.552C32.7002 29.228 32.1872 29.066 31.5212 29.066C30.9992 29.066 30.5672 29.174 30.2252 29.39C29.9012 29.606 29.7392 29.903 29.7392 30.281C29.7392 30.677 29.9552 31.01 30.3872 31.28C30.8372 31.532 31.5302 31.82 32.4662 32.144C33.4382 32.468 34.2392 32.792 34.8692 33.116C35.5172 33.422 36.0662 33.863 36.5162 34.439C36.9842 34.997 37.2182 35.699 37.2182 36.545C37.2182 37.517 36.9212 38.354 36.3272 39.056C35.7512 39.758 34.9502 40.298 33.9242 40.676C32.9162 41.036 31.7642 41.216 30.4682 41.216ZM49.1959 33.494L54.1909 41H48.4669L44.9839 34.709L43.8769 41H39.2599L42.7969 21.02H47.4139L45.4699 32.036L51.0859 25.934H56.7829L49.1959 33.494ZM62.6313 33.44C62.9013 31.892 63.4323 30.533 64.2243 29.363C65.0163 28.193 65.9703 27.293 67.0863 26.663C68.2023 26.033 69.3813 25.718 70.6233 25.718C71.6853 25.718 72.5763 25.934 73.2963 26.366C74.0163 26.798 74.5383 27.365 74.8623 28.067L75.2403 25.934H79.8573L77.1843 41H72.5673L72.9723 38.867C72.3963 39.569 71.6673 40.136 70.7853 40.568C69.9033 41 68.9313 41.216 67.8693 41.216C66.8073 41.216 65.8623 40.973 65.0343 40.487C64.2243 40.001 63.5943 39.317 63.1443 38.435C62.6943 37.535 62.4693 36.482 62.4693 35.276C62.4693 34.7 62.5233 34.088 62.6313 33.44ZM73.9173 33.467C73.9713 33.143 73.9983 32.846 73.9983 32.576C73.9983 31.694 73.7373 31.001 73.2153 30.497C72.7113 29.993 72.0633 29.741 71.2713 29.741C70.3533 29.741 69.5163 30.074 68.7603 30.74C68.0043 31.388 67.5273 32.288 67.3293 33.44C67.2753 33.764 67.2483 34.061 67.2483 34.331C67.2483 35.213 67.5003 35.915 68.0043 36.437C68.5263 36.941 69.1743 37.193 69.9483 37.193C70.8663 37.193 71.7033 36.86 72.4593 36.194C73.2153 35.528 73.7013 34.619 73.9173 33.467Z" fill="#737380"/>
<defs>
<linearGradient id="paint0_linear" x1="80.0842" y1="3" x2="140.295" y2="77.547" gradientUnits="userSpaceOnUse">
<stop stop-color="#485BFF"/>
<stop offset="1" stop-color="#FF59F8"/>
</linearGradient>
<linearGradient id="paint1_linear" x1="88" y1="11" x2="121.441" y2="62.4631" gradientUnits="userSpaceOnUse">
<stop stop-color="#485BFF"/>
<stop offset="1" stop-color="#FF59F8"/>
</linearGradient>
</defs>
</svg>
